# File created by Blade
# Date/Time:  Tue Jan 27 18:12:42 2015
# Frame Rate: 120.000 fps
#------------------------------------------------------
:FULLY-SPECIFIED
:DEGREES
3944
root -1.959509 31.833866 -6.573567 6.493120 -12.224691 0.892527
Spine -4.457768 -25.176575 -2.433445
Head 26.301474 38.322651 20.975746
LeftShoulder -17.356848 18.069060 2.931538
LeftArm 27.399003 35.579052 -66.396153
LeftForeArm -0.957972 -0.000000 17.901879
LeftHand -11.219899 -0.000000 -2.427836
LeftHandThumb1 -26.253704 0.000000 33.147579
RightShoulder -22.283564 -6.103565 -19.614417
RightArm -27.362121 68.629385 46.634898
RightForeArm 38.238967 -0.000000 111.594420
RightHand -15.109675 0.000000 -16.167140
RightHandThumb1 -24.326973 -0.000000 -32.862282
LeftUpLeg 0.188354 11.226581 0.332515
LeftLeg 0.796145 -0.000000 -0.000000
LeftFoot -23.046603 22.106056 -28.203093
LeftToeBase 8.753495 -0.000000 -0.000000
RightUpLeg -2.780782 6.868674 -2.275816
RightLeg -2.773392 -0.000000 0.000000
RightFoot -11.996753 -5.884548 8.130882
RightToeBase 4.526850 -0.000000 -0.000000
3945
root -1.960010 31.833835 -6.575004 6.481547 -12.065780 0.903515
Spine -4.437114 -25.213794 -2.434756
Head 26.382717 38.335411 21.057791
LeftShoulder -17.366599 18.074433 2.926477
LeftArm 27.382065 35.563553 -66.401495
LeftForeArm -0.936971 -0.000000 17.973310
LeftHand -11.406584 0.000000 -2.378439
LeftHandThumb1 -26.253704 0.000000 33.147579
RightShoulder -22.294207 -6.134479 -19.602564
RightArm -27.555826 68.610429 46.456134
RightForeArm 38.228706 -0.000000 111.612950
RightHand -15.087262 -0.000000 -16.143589
RightHandThumb1 -24.326973 -0.000000 -32.862282
LeftUpLeg 0.175525 11.139968 0.339411
LeftLeg 0.795193 -0.000000 -0.000000
LeftFoot -23.003731 22.059517 -28.174885
LeftToeBase 8.731104 -0.000000 -0.000000
RightUpLeg -2.746998 6.783293 -2.267531
RightLeg -2.778679 -0.000000 0.000000
RightFoot -12.021267 -5.954374 8.135440
RightToeBase 4.554751 -0.000000 -0.000000
3946
root -1.958870 31.834400 -6.577540 6.487146 -11.938744 0.923122
Spine -4.435771 -25.220257 -2.431875
Head 26.430406 38.328880 21.083772
LeftShoulder -17.397800 18.071786 2.914099
LeftArm 27.427910 35.630405 -66.347693
LeftForeArm -1.035727 -0.000000 17.967661
LeftHand -11.378616 -0.000000 -2.316609
LeftHandThumb1 -26.253704 0.000000 33.147579
RightShoulder -22.316335 -6.155568 -19.591953
RightArm -27.792649 68.618233 46.242209
RightForeArm 38.383267 -0.000000 111.621646
RightHand -14.923645 0.000000 -16.293180
RightHandThumb1 -24.326973 -0.000000 -32.862282
LeftUpLeg 0.142000 11.079780 0.329917
LeftLeg 0.801455 -0.000000 -0.000000
LeftFoot -22.960417 21.995103 -28.149404
LeftToeBase 8.769749 -0.000000 -0.000000
RightUpLeg -2.743425 6.721850 -2.277793
RightLeg -2.777342 -0.000000 0.000000
RightFoot -12.042861 -6.015770 8.142058
RightToeBase 4.567748 -0.000000 -0.000000
3947
root -1.958795 31.834444 -6.579752 6.490051 -11.809908 0.930088
Spine -4.433791 -25.229679 -2.417340
Head 26.500699 38.340308 21.123446
LeftShoulder -17.440501 18.095007 2.898988
LeftArm 27.504018 35.692219 -66.293613
LeftForeArm -1.060202 -0.000000 17.946513
LeftHand -11.270778 -0.000000 -2.293470
LeftHandThumb1 -26.253704 0.000000 33.147579
RightShoulder -22.344006 -6.232913 -19.561567
RightArm -27.865473 68.654181 46.189444
RightForeArm 38.458316 -0.000000 111.639617
RightHand -14.952470 -0.000000 -16.297552
RightHandThumb1 -24.326973 -0.000000 -32.862282
LeftUpLeg 0.124850 11.047253 0.332056
LeftLeg 0.782616 -0.000000 -0.000000
LeftFoot -22.895500 21.943039 -28.097961
LeftToeBase 8.743949 -0.000000 -0.000000
RightUpLeg -2.736829 6.655108 -2.276616
RightLeg -2.758889 -0.000000 0.000000
RightFoot -12.085151 -6.047106 8.148002
RightToeBase 4.600513 -0.000000 -0.000000
3948
root -1.958977 31.834591 -6.581693 6.490092 -11.681617 0.941359
Spine -4.424614 -25.229025 -2.410904
Head 26.546359 38.332666 21.152473
LeftShoulder -17.468273 18.119695 2.876594
LeftArm 27.520185 35.678687 -66.288875
LeftForeArm -0.971618 -0.000000 17.986354
LeftHand -11.388815 -0.000000 -2.324691
LeftHandThumb1 -26.253704 0.000000 33.147579
RightShoulder -22.382898 -6.289866 -19.536715
RightArm -27.982142 68.676271 46.106940
RightForeArm 38.587449 0.000000 111.643013
RightHand -14.986925 -0.000000 -16.045836
RightHandThumb1 -24.326973 -0.000000 -32.862282
LeftUpLeg 0.110831 10.991215 0.336264
LeftLeg 0.764193 -0.000000 -0.000000
LeftFoot -22.828491 21.889628 -28.054487
LeftToeBase 8.735860 -0.000000 -0.000000
RightUpLeg -2.722869 6.618357 -2.271390
RightLeg -2.766328 -0.000000 0.000000
RightFoot -12.092335 -6.171903 8.141432
RightToeBase 4.558654 -0.000000 -0.000000
3949
root -1.957775 31.835085 -6.585140 6.494736 -11.544227 0.957686
Spine -4.419807 -25.246467 -2.401184
Head 26.604904 38.348062 21.178239
LeftShoulder -17.484960 18.129718 2.856936
LeftArm 27.500916 35.659477 -66.308997
LeftForeArm -0.913641 -0.000000 18.009183
LeftHand -11.435697 -0.000000 -2.300454
LeftHandThumb1 -26.253704 0.000000 33.147579
RightShoulder -22.403341 -6.345771 -19.513271
RightArm -28.081925 68.682395 46.053160
RightForeArm 38.603451 -0.000000 111.653762
RightHand -15.022232 -0.000000 -16.046502
RightHandThumb1 -24.326973 -0.000000 -32.862282
LeftUpLeg 0.077312 10.899957 0.329181
LeftLeg 0.768865 -0.000000 -0.000000
LeftFoot -22.792085 21.860661 -28.021949
LeftToeBase 8.735346 -0.000000 -0.000000
RightUpLeg -2.718840 6.554643 -2.276097
RightLeg -2.761307 -0.000000 0.000000
RightFoot -12.117209 -6.247739 8.153721
RightToeBase 4.591490 -0.000000 -0.000000
3950
root -1.955667 31.835449 -6.587996 6.500707 -11.399843 0.978664
Spine -4.414974 -25.254505 -2.397602
Head 26.655814 38.344026 21.210250
LeftShoulder -17.488014 18.151028 2.843767
LeftArm 27.507339 35.649740 -66.320798
LeftForeArm -0.902288 -0.000000 17.997615
LeftHand -11.401608 0.000000 -2.295899
LeftHandThumb1 -26.253704 0.000000 33.147579
RightShoulder -22.438343 -6.366886 -19.496319
RightArm -28.197033 68.626400 45.975859
RightForeArm 38.422077 -0.000000 111.660272
RightHand -15.090899 -0.000000 -16.240027
RightHandThumb1 -24.326973 -0.000000 -32.862282
LeftUpLeg 0.044949 10.810133 0.316743
LeftLeg 0.765835 -0.000000 -0.000000
LeftFoot -22.752636 21.831950 -27.992502
LeftToeBase 8.737703 -0.000000 -0.000000
RightUpLeg -2.715725 6.457371 -2.290561
RightLeg -2.743968 -0.000000 0.000000
RightFoot -12.156143 -6.238073 8.214906
RightToeBase 4.624109 -0.000000 -0.000000
3951
root -1.954850 31.835651 -6.591626 6.517219 -11.255828 0.986160
Spine -4.424077 -25.277437 -2.371117
Head 26.716839 38.353846 21.238232
LeftShoulder -17.493083 18.160587 2.823698
LeftArm 27.468123 35.641462 -66.364288
LeftForeArm -0.940426 -0.000000 18.026545
LeftHand -11.487585 -0.000000 -2.121603
LeftHandThumb1 -26.253704 0.000000 33.147579
RightShoulder -22.438327 -6.401509 -19.491887
RightArm -28.501056 68.677629 45.740555
RightForeArm 38.634623 -0.000000 111.633232
RightHand -15.170877 -0.000000 -15.929137
RightHandThumb1 -24.326973 -0.000000 -32.862282
LeftUpLeg 0.001866 10.740004 0.317598
LeftLeg 0.764935 -0.000000 -0.000000
LeftFoot -22.693676 21.792453 -27.930759
LeftToeBase 8.708198 -0.000000 -0.000000
RightUpLeg -2.717612 6.396923 -2.283267
RightLeg -2.756743 -0.000000 0.000000
RightFoot -12.158345 -6.346346 8.212640
RightToeBase 4.524774 -0.000000 -0.000000
3952
root -1.953884 31.835552 -6.593113 6.518412 -11.121830 1.001776
Spine -4.422091 -25.293252 -2.362672
Head 26.791391 38.363078 21.283807
LeftShoulder -17.515088 18.187166 2.810783
LeftArm 27.431426 35.609581 -66.408108
LeftForeArm -0.823309 -0.000000 18.051786
LeftHand -11.509869 0.000000 -2.270355
LeftHandThumb1 -26.253704 0.000000 33.147579
RightShoulder -22.440231 -6.441986 -19.482589
RightArm -28.655841 68.640409 45.640592
RightForeArm 38.553308 -0.000000 111.609312
RightHand -15.207635 -0.000000 -16.020928
RightHandThumb1 -24.326973 -0.000000 -32.862282
LeftUpLeg -0.018927 10.672309 0.310499
LeftLeg 0.756021 -0.000000 -0.000000
LeftFoot -22.666097 21.739328 -27.929766
LeftToeBase 8.749954 -0.000000 -0.000000
RightUpLeg -2.703662 6.329386 -2.284518
RightLeg -2.757394 -0.000000 0.000000
RightFoot -12.186244 -6.442918 8.160856
RightToeBase 4.541194 -0.000000 -0.000000
3953
root -1.952417 31.835748 -6.595334 6.528428 -10.995014 1.017101
Spine -4.426559 -25.305378 -2.348962
Head 26.841657 38.366046 21.308910
LeftShoulder -17.542489 18.195346 2.802686
LeftArm 27.438043 35.676046 -66.408261
LeftForeArm -0.866521 -0.000000 18.018013
LeftHand -11.319837 -0.000000 -2.490884
LeftHandThumb1 -26.253704 0.000000 33.147579
RightShoulder -22.441665 -6.480521 -19.466302
RightArm -28.724364 68.568246 45.628855
RightForeArm 38.265493 -0.000000 111.576469
RightHand -15.266645 -0.000000 -16.036066
RightHandThumb1 -24.326973 -0.000000 -32.862282
LeftUpLeg -0.048887 10.592823 0.302420
LeftLeg 0.748204 -0.000000 -0.000000
LeftFoot -22.633520 21.702239 -27.910074
LeftToeBase 8.770131 -0.000000 -0.000000
RightUpLeg -2.700781 6.272666 -2.292790
RightLeg -2.760365 -0.000000 0.000000
RightFoot -12.203195 -6.497384 8.188481
RightToeBase 4.551287 -0.000000 -0.000000
